<?xml version="1.0" standalone="no"?>
<!DOCTYPE svg PUBLIC "-//W3C//DTD SVG 1.1//EN" "http://www.w3.org/Graphics/SVG/1.1/DTD/svg11.dtd">
<svg xmlns="http://www.w3.org/2000/svg" width="250" height="106" viewBox="0 0 250 106" fill="none"><g clip-path="url(#clip0_285_270)"><path fill-rule="evenodd" clip-rule="evenodd" d="M136.695 8.2293L137.457 7.46765L148.102 23.2608H146.457L136.695 8.2293Z" fill="#F3DC0A"/><path fill-rule="evenodd" clip-rule="evenodd" d="M178.63 6.64478H179.418L180.871 28.6012H179.094L178.63 6.64478Z" fill="#F3DC0A"/><path fill-rule="evenodd" clip-rule="evenodd" d="M220.098 4.9989L221.088 5.26154L206.38 33.1535L204.41 32.6895L220.098 4.9989Z" fill="#F3DC0A"/><path fill-rule="evenodd" clip-rule="evenodd" d="M213.506 34.2741H214.758L215.222 33.2148L214.626 32.8208L213.506 34.2741Z" fill="#F3DC0A"/><path d="M150.738 29.5903H152.585L155.291 33.5474L152.918 33.346L150.738 29.5903Z" fill="#F3DC0A"/><path d="M157.793 40.9276H160.761L162.477 43.0375L158.984 43.1075L157.793 40.9276Z" fill="#F3DC0A"/><path d="M172.3 34.5367H173.289L173.613 35.5873H172.624L172.3 34.5367Z" fill="#F3DC0A"/><path d="M179.093 32.8821L181.264 33.276L181.597 36.1825L179.154 35.9199L179.093 32.8821Z" fill="#F3DC0A"/><path d="M193.267 34.5367L194.125 34.7293L193.459 37.4345L192.277 37.1719L193.267 34.5367Z" fill="#F3DC0A"/><path d="M202.231 35.9812L204.866 36.0512L203.615 38.485L200.979 38.1611L202.231 35.9812Z" fill="#F3DC0A"/><path d="M211.458 36.5765L212.386 37.1018L211.064 39.0803L209.742 38.8177L211.458 36.5765Z" fill="#F3DC0A"/><path fill-rule="evenodd" clip-rule="evenodd" d="M173.885 41.3916L175.198 41.4529L175.461 43.2388L174.209 43.3001L173.885 41.3916Z" fill="#F3DC0A"/><path fill-rule="evenodd" clip-rule="evenodd" d="M178.893 41.3916L182.184 41.5229L182.587 43.5627H178.893V41.3916Z" fill="#F3DC0A"/><path fill-rule="evenodd" clip-rule="evenodd" d="M191.025 41.7855L192.076 42.0482L191.682 43.6327L190.43 43.5627L191.025 41.7855Z" fill="#F3DC0A"/><path fill-rule="evenodd" clip-rule="evenodd" d="M198.607 42.1182L201.636 42.1794L200.98 44.158L197.355 43.9566L198.607 42.1182Z" fill="#F3DC0A"/><path fill-rule="evenodd" clip-rule="evenodd" d="M207.179 42.1182L208.431 42.3808L207.047 44.158L205.664 44.0967L207.179 42.1182Z" fill="#F3DC0A"/><path fill-rule="evenodd" clip-rule="evenodd" d="M144.013 81.1459L146.517 80.8833L144.74 83.5184H143.681L144.013 81.1459Z" fill="#F3DC0A"/><path fill-rule="evenodd" clip-rule="evenodd" d="M155.885 77.9767L157.662 78.178L157.067 79.3687L156.603 79.2986L155.885 77.9767Z" fill="#F3DC0A"/><path fill-rule="evenodd" clip-rule="evenodd" d="M158.319 99.6705H160.692L154.634 106L153.373 105.799L158.319 99.6705Z" fill="#F3DC0A"/><path fill-rule="evenodd" clip-rule="evenodd" d="M181.989 99.6705L183.898 99.7318L183.766 105.737L182.383 105.93L181.989 99.6705Z" fill="#F3DC0A"/><path fill-rule="evenodd" clip-rule="evenodd" d="M205.986 99.9332L207.834 99.6705L213.638 105.737L212.316 105.869L205.986 99.9332Z" fill="#F3DC0A"/><path fill-rule="evenodd" clip-rule="evenodd" d="M127.642 48.3865C127.642 48.3865 130.601 49.7434 130.461 51.3718C129.542 51.3368 127.572 48.6491 127.642 48.3865Z" fill="#F3DC0A"/><path fill-rule="evenodd" clip-rule="evenodd" d="M153.748 59.9162L168.394 75.4993C168.394 75.4993 170.049 77.793 167.817 78.0906C165.593 78.3795 163.08 78.0906 163.08 78.0906C163.08 78.0906 164.157 79.3776 162.94 80.6032C162.581 80.8921 165.383 80.8133 165.164 82.608C168.272 81.5049 166.241 80.8133 172.492 81.0322C173.034 81.0497 173.122 81.9514 173.787 82.179C174.435 81.8901 176.659 77.723 176.659 77.723L179.679 77.863C179.679 77.863 178.742 76.3573 176.3 75.6394C176.16 75.1316 176.23 74.1336 176.23 74.1336C176.23 74.1336 174.006 75.4993 174.505 74.2737C173.927 73.7747 170.627 74.9915 172.57 74.4137C173.612 73.3019 175.354 73.1531 175.591 72.6891C175.731 72.4002 175.451 73.5558 175.302 73.906C175.95 73.6959 177.963 70.7456 176.309 69.0997C176.396 68.3556 176.597 67.3051 176.667 67.165C175.302 66.8761 175.591 65.3003 175.591 65.3003C175.591 65.3003 173.577 64.5123 173.148 64.0834C172.054 62.9891 174.514 64.2322 175.521 64.8012C176.527 65.379 176.816 66.307 176.816 66.307C176.816 66.307 178.611 65.8781 178.681 65.9481C178.681 64.6524 180.108 61.0718 179.618 59.9862C178.83 60.1263 178.611 60.2051 178.611 60.2051C178.611 60.2051 178.112 57.9815 178.392 57.2548C178.681 56.537 179.04 58.4805 179.11 59.0495C179.18 59.6273 179.399 59.1196 180.476 58.9007C182.559 66.7272 185.86 59.2596 185.86 59.2596C185.86 59.2596 185.072 58.9007 185.501 57.964C190.456 50.8553 186.289 57.964 186.367 58.6118C186.438 59.2596 187.33 58.6118 187.733 58.8219C188.381 59.1808 186.438 65.3615 192.758 60.3277C192.995 60.1438 193.336 61.3695 193.546 61.1856C193.686 61.1156 195.052 57.8852 196.208 57.3074C195.63 58.7431 195.35 60.8967 194.702 60.9668C193.748 60.8442 191.112 68.1455 197.214 65.703C198.51 65.0551 198.361 65.773 198.072 66.3508C198.694 66.3508 202.668 63.9083 202.668 63.9083C202.668 63.9083 201.565 65.0989 199.508 66.7097C199.123 67.0074 198.86 67.4276 198.142 67.3576C195.455 69.5987 194.404 73.0305 199.289 73.1706C199.219 73.1706 199.149 73.8184 199.149 73.8184L202.021 74.1774C202.021 74.1774 198.93 75.0353 197.853 74.6063C197.783 74.6764 197.923 73.8885 197.923 73.8885C197.923 73.8885 195.63 73.8885 194.115 76.83C193.896 77.1889 195.91 77.4778 195.332 79.3425C196.628 79.5527 195.691 79.1937 196.549 79.8416C196.505 80.0254 195.691 80.4894 195.113 79.6227C192.933 79.4564 189.038 79.2813 188.582 80.7695C188.442 80.6995 191.603 80.9884 191.603 80.9884C191.603 80.9884 192.531 82.4942 193.038 82.2841C193.537 82.0652 193.826 81.1372 193.826 81.1372C193.826 81.1372 217.026 79.2725 249.12 84.0087C249.19 84.0788 249.768 82.7918 249.768 82.7918C249.768 82.7918 216.737 80.0604 205.89 74.6764C214.154 73.9585 229.44 72.9517 229.44 72.9517L229.589 71.945C229.589 71.945 204.095 73.2406 202.59 72.5928C197.705 66.0619 216.238 56.7208 235.48 44.657C235.34 44.657 234.544 43.8691 234.544 43.8691C234.544 43.8691 195.91 68.7846 197.494 57.4387C200.874 52.1947 204.025 48.1764 204.025 48.1764L202.012 48.5353C202.012 48.5353 195.043 59.7411 199.28 48.6754C199.28 48.8155 192.391 49.3933 192.391 49.3933C192.391 49.3933 188.941 53.5604 190.097 49.6121C190.097 49.6822 188.302 49.7522 188.302 49.7522C188.302 49.7522 188.591 55.3551 184.713 50.1812C184.643 49.9623 175.95 51.1879 175.95 51.1879C175.95 51.1879 175.88 52.1947 175.731 52.4836C174.873 52.7025 172.815 53.0877 171.494 51.8358C171.423 51.8358 163.667 52.4136 163.667 52.4136C163.667 52.4136 171.494 66.7798 153.757 59.8812L153.748 59.9162Z" fill="#F3DC0A"/><path d="M18.2791 87.0989L12.2035 83.921L6.14531 87.1164L7.29216 80.3754L2.38086 75.6042L9.15688 74.6061L12.1772 68.4604L15.2238 74.5974L22.0085 75.5604L17.106 80.3491L18.2791 87.0989Z" fill="#1D2858"/><path d="M61.5172 9.98901L214.135 35.8499L82.2829 19.5927L101.289 38.5901H68.7659L61.1232 53.0964H48.7793L57.4025 38.5901H61.3246L69.3525 24.2939H75.0342L61.5172 9.98901Z" fill="#B32725"/><path d="M37.3445 79.5089L29.4392 96.9217H25.6047L27.2068 93.7963H25.8673L23.8363 96.9217H19.958L31.9255 79.5089H37.3445ZM28.8876 90.706C29.8419 88.7274 31.05 86.2937 32.5383 83.3872C30.2271 86.7227 28.5812 89.1564 27.592 90.706H28.8876Z" fill="#1D2858"/><path d="M41.7581 82.6517L40.9089 84.0087C41.4955 83.4659 42.0645 83.0632 42.6073 82.8005C43.1501 82.5291 43.6666 82.3978 44.1569 82.3978C45.1199 82.3978 45.5663 82.9406 45.4963 84.0174C46.1091 83.4746 46.6869 83.0719 47.221 82.8093C47.755 82.5379 48.254 82.4066 48.718 82.4066C49.3308 82.4066 49.7335 82.5904 49.9261 82.9406C50.1187 83.2995 50.1275 83.7373 49.9349 84.2625C49.751 84.7791 49.3133 85.6283 48.6392 86.7926L42.7824 96.9391H39.2893L44.6646 87.633C45.365 86.4162 45.7677 85.6633 45.8728 85.3744C45.9691 85.0855 45.899 84.9366 45.6451 84.9366C45.3913 84.9366 45.1461 85.0767 44.901 85.3656C44.6646 85.6545 44.1831 86.4074 43.4828 87.633L38.1075 96.9391H34.6144L39.8496 87.8694C40.655 86.4687 41.1103 85.6283 41.2153 85.3569C41.3204 85.0767 41.2504 84.9366 40.9877 84.9366C40.8301 84.9366 40.6463 85.0154 40.4537 85.1555C40.2523 85.3043 40.0948 85.4794 39.9547 85.6983C39.8234 85.9084 39.552 86.3636 39.158 87.0465L33.4413 96.9391H29.9482L38.1863 82.6692H41.7406L41.7581 82.6517Z" fill="#1D2858"/><path d="M56.1591 90.0406H51.5016L49.7157 93.1222C49.348 93.7701 49.1379 94.1815 49.1116 94.3741C49.0854 94.558 49.1729 94.6543 49.4006 94.6543C49.6719 94.6543 49.9258 94.5317 50.1622 94.2866C50.3986 94.0415 50.7225 93.56 51.1252 92.8508L52.2108 90.9686H55.625L55.0122 92.0192C54.5044 92.9034 54.0667 93.5775 53.699 94.0502C53.3313 94.523 52.8236 95.0307 52.1757 95.5647C51.5279 96.1075 50.8626 96.5102 50.1885 96.7729C49.5144 97.0443 48.7877 97.1756 47.9998 97.1756C47.2119 97.1756 46.6429 97.0443 46.2139 96.7729C45.7849 96.5102 45.5398 96.1425 45.4873 95.6786C45.426 95.2146 45.496 94.7068 45.6974 94.1553C45.8987 93.595 46.3014 92.7896 46.9143 91.7303L49.313 87.5718C50.0309 86.3199 50.74 85.3394 51.4404 84.6216C52.132 83.9037 52.9111 83.3434 53.7691 82.967C54.627 82.5818 55.4675 82.3892 56.2904 82.3892C57.2971 82.3892 57.9975 82.6168 58.3915 83.0808C58.7854 83.5448 58.8905 84.1576 58.7154 84.9192C58.5403 85.6809 58.05 86.7577 57.2534 88.1409L56.1591 90.0319V90.0406ZM53.8916 87.7119L54.4957 86.6701C54.9247 85.9347 55.161 85.4533 55.2223 85.2431C55.2836 85.033 55.2136 84.9192 55.0122 84.9192C54.7583 84.9192 54.557 85.0155 54.3906 85.1906C54.2243 85.3745 53.9091 85.8647 53.4451 86.6701L52.8411 87.7119H53.8916Z" fill="#1D2858"/><path d="M65.2024 82.6518L63.9767 84.5253C65.2724 83.1771 66.4455 82.468 67.4785 82.3892L64.5808 87.4143C63.9242 87.4143 63.3727 87.5193 62.9437 87.7382C62.5147 87.9483 62.147 88.2547 61.8581 88.6399C61.5692 89.0251 61.0177 89.9093 60.221 91.2925L56.9643 96.9305H53.3662L61.6042 82.6605H65.2024V82.6518Z" fill="#1D2858"/><path d="M73.6508 79.5089L72.3377 81.7763H68.6345L69.9477 79.5089H73.6508ZM71.8387 82.6518L63.6006 96.9217H59.8975L68.1355 82.6518H71.8387Z" fill="#1D2858"/><path d="M77.9752 88.0357H74.5784L75.5327 86.3899C75.8653 85.8121 76.0492 85.4269 76.093 85.2168C76.1367 85.0154 76.0492 84.9104 75.8391 84.9104C75.629 84.9104 75.4364 84.9979 75.2613 85.1818C75.0862 85.3656 74.8148 85.7596 74.4559 86.3899L70.5688 93.1221C70.2799 93.6299 70.1049 94.0151 70.0698 94.269C70.0261 94.5229 70.1136 94.6542 70.3237 94.6542C70.5689 94.6542 70.8052 94.5229 71.0504 94.2602C71.2867 93.9976 71.6194 93.4898 72.0484 92.7544L73.0289 91.0561H76.233C75.5677 92.1942 75.0424 93.0521 74.6485 93.6212C74.2545 94.1902 73.7205 94.7767 73.0376 95.3721C72.3548 95.9761 71.6544 96.4226 70.9365 96.729C70.2187 97.0354 69.4658 97.1842 68.6691 97.1842C67.6536 97.1842 66.9707 96.9741 66.6205 96.5539C66.2704 96.1337 66.1828 95.5471 66.3754 94.7943C66.568 94.0414 67.0583 92.9646 67.8637 91.5726L70.2012 87.5192C70.9015 86.3024 71.5318 85.3919 72.0834 84.7791C72.6437 84.1662 73.3878 83.6059 74.3245 83.1244C75.2613 82.6429 76.2068 82.3978 77.1523 82.3978C78.0978 82.3978 78.7543 82.643 79.1395 83.1157C79.5247 83.5972 79.621 84.2013 79.4197 84.9366C79.2183 85.672 78.7281 86.7051 77.9577 88.0445L77.9752 88.0357Z" fill="#1D2858"/><path d="M82.1785 88.1759H78.7992L79.3507 87.2217C79.9898 86.1186 80.5851 85.2694 81.1454 84.6653C81.7057 84.07 82.4323 83.536 83.3341 83.0808C84.2358 82.6168 85.19 82.3892 86.2055 82.3892C87.4224 82.3892 88.1928 82.6518 88.508 83.1683C88.8232 83.6848 88.8319 84.3239 88.508 85.0856C88.2016 85.8385 87.3612 87.3968 85.9954 89.7605L81.8633 96.9217H78.3615L79.0969 95.6435C78.5803 96.1601 78.0813 96.5365 77.5823 96.7904C77.0921 97.0443 76.6018 97.1756 76.1203 97.1756C75.49 97.1756 75.0348 96.9567 74.7546 96.5365C74.4745 96.1075 74.7546 95.1795 75.5863 93.735L76.2604 92.5619C76.882 91.4939 77.4335 90.7673 77.9413 90.3821C78.4403 89.9969 79.3945 89.5416 80.804 89.0251C82.3098 88.4648 83.159 88.0884 83.3516 87.8958C83.5442 87.7032 83.8156 87.3092 84.157 86.7139C84.586 85.9698 84.8223 85.4795 84.8573 85.2606C84.8924 85.033 84.8048 84.9192 84.5947 84.9192C84.3496 84.9192 84.1482 85.0155 83.9731 85.2081C83.8068 85.4007 83.4916 85.891 83.0276 86.6876L82.1697 88.1847L82.1785 88.1759ZM82.196 90.1369C81.3205 90.6447 80.7427 91.0737 80.4538 91.4151C80.1649 91.7565 79.8322 92.2555 79.4558 92.9034C79.0268 93.6387 78.7992 94.1202 78.7554 94.3304C78.7117 94.5492 78.808 94.6543 79.0443 94.6543C79.2807 94.6543 79.4646 94.5755 79.6309 94.4004C79.7972 94.2341 80.0861 93.7876 80.4976 93.0697L82.196 90.1369Z" fill="#1D2858"/><path d="M95.0116 82.6518L94.1887 83.965C94.749 83.4397 95.3005 83.0457 95.8258 82.7831C96.3511 82.5205 96.8676 82.3892 97.3579 82.3892C97.9794 82.3892 98.3821 82.5642 98.566 82.9144C98.7586 83.2646 98.7498 83.7111 98.5572 84.2451C98.3646 84.7792 97.9006 85.6721 97.1828 86.9153L91.4048 96.9217H87.8067L93.5146 87.0378C94.0837 86.0573 94.3988 85.462 94.4689 85.2431C94.5389 85.033 94.4514 84.9192 94.2062 84.9192C93.9611 84.9192 93.716 85.0418 93.5146 85.2957C93.3045 85.5408 92.893 86.2061 92.2715 87.2829L86.7036 96.9305H83.1055L91.3435 82.6605H95.0029L95.0116 82.6518Z" fill="#1D2858"/><path d="M110.936 84.7791H107.451L108.196 83.4922C108.546 82.8881 108.721 82.5117 108.73 82.3366C108.73 82.1703 108.633 82.0915 108.423 82.0915C108.196 82.0915 107.959 82.2053 107.723 82.4241C107.478 82.6518 107.224 82.9844 106.961 83.4397C106.629 84.0175 106.436 84.4552 106.401 84.7528C106.357 85.0505 106.506 85.4007 106.847 85.8209C107.828 87.0115 108.309 88.0008 108.301 88.7624C108.292 89.5328 107.793 90.7672 106.812 92.4743C106.095 93.7175 105.447 94.628 104.869 95.2145C104.291 95.8011 103.538 96.3001 102.619 96.694C101.7 97.088 100.781 97.2893 99.87 97.2893C98.8633 97.2893 98.1454 97.0617 97.6989 96.5977C97.2524 96.1425 97.1299 95.5559 97.3137 94.8468C97.5063 94.1377 97.9791 93.1309 98.7319 91.8265L99.3885 90.6884H102.873L101.647 92.807C101.271 93.4636 101.078 93.8838 101.069 94.0677C101.069 94.2515 101.183 94.3478 101.428 94.3478C101.673 94.3478 101.936 94.234 102.19 93.9976C102.453 93.7613 102.715 93.4111 102.978 92.9471C103.573 91.9228 103.845 91.2487 103.792 90.9336C103.74 90.6184 103.459 90.0931 102.952 89.349C102.453 88.6048 102.146 88.0621 102.041 87.7206C101.936 87.388 101.954 86.924 102.094 86.3287C102.243 85.7334 102.575 84.9717 103.109 84.0437C103.88 82.7043 104.58 81.7325 105.219 81.1197C105.858 80.5069 106.594 80.0254 107.425 79.6752C108.257 79.325 109.115 79.1587 110.008 79.1587C110.98 79.1587 111.706 79.3425 112.17 79.7277C112.634 80.1042 112.818 80.5857 112.704 81.1635C112.59 81.7413 112.135 82.7218 111.338 84.105L110.945 84.7966L110.936 84.7791Z" fill="#1D2858"/><path d="M118.79 87.6593L116.776 91.1524C116.032 92.4393 115.437 93.376 114.981 93.9801C114.526 94.5754 113.975 95.1357 113.327 95.661C112.679 96.1775 112.005 96.5627 111.313 96.8078C110.622 97.0529 109.921 97.1842 109.203 97.1842C108.407 97.1842 107.794 97.0792 107.365 96.8691C106.936 96.659 106.691 96.3351 106.629 95.9148C106.568 95.4859 106.647 94.9781 106.866 94.3653C107.085 93.7612 107.549 92.8507 108.24 91.6426L110.35 87.9832C111.112 86.6525 111.83 85.6195 112.504 84.8754C113.169 84.1312 113.948 83.5359 114.824 83.0807C115.699 82.6254 116.618 82.3978 117.581 82.3978C118.387 82.3978 119 82.5467 119.411 82.8356C119.823 83.1245 120.05 83.5009 120.094 83.9649C120.138 84.4289 120.076 84.9104 119.91 85.4094C119.735 85.9084 119.367 86.6613 118.781 87.6681L118.79 87.6593ZM115.813 86.5913C116.233 85.8559 116.47 85.4006 116.513 85.208C116.557 85.0154 116.47 84.9191 116.259 84.9191C116.049 84.9191 115.848 85.0154 115.664 85.208C115.48 85.4006 115.183 85.8559 114.762 86.5913L111.042 93.0346C110.648 93.7087 110.438 94.1464 110.385 94.3478C110.341 94.5491 110.42 94.6542 110.63 94.6542C110.84 94.6542 111.042 94.5579 111.217 94.374C111.392 94.1902 111.655 93.7875 112.014 93.1659L115.813 86.5825V86.5913Z" fill="#1D2858"/><path d="M128.392 79.5089L118.333 96.9217H114.63L124.68 79.5089H128.383H128.392Z" fill="#1D2858"/><path d="M127.893 88.1759H124.514L125.066 87.2217C125.705 86.1186 126.3 85.2694 126.86 84.6653C127.421 84.07 128.147 83.536 129.049 83.0808C129.951 82.6168 130.905 82.3892 131.92 82.3892C133.137 82.3892 133.908 82.6518 134.223 83.1683C134.538 83.6848 134.547 84.3239 134.223 85.0856C133.908 85.8385 133.076 87.3968 131.71 89.7605L127.578 96.9217H124.076L124.812 95.6435C124.295 96.1601 123.796 96.5365 123.297 96.7904C122.798 97.0443 122.317 97.1756 121.835 97.1756C121.205 97.1756 120.75 96.9567 120.469 96.5365C120.189 96.1075 120.469 95.1795 121.301 93.735L121.975 92.5619C122.597 91.4939 123.148 90.7673 123.656 90.3821C124.155 89.9969 125.109 89.5416 126.51 89.0251C128.016 88.4648 128.865 88.0884 129.058 87.8958C129.25 87.7032 129.522 87.3092 129.863 86.7139C130.292 85.9698 130.528 85.4795 130.563 85.2606C130.598 85.033 130.511 84.9192 130.301 84.9192C130.056 84.9192 129.854 85.0155 129.679 85.2081C129.513 85.4007 129.198 85.891 128.734 86.6876L127.876 88.1847L127.893 88.1759ZM127.902 90.1369C127.035 90.6447 126.449 91.0737 126.16 91.4151C125.871 91.7565 125.538 92.2555 125.162 92.9034C124.733 93.6387 124.497 94.1202 124.453 94.3304C124.409 94.5492 124.505 94.6543 124.742 94.6543C124.978 94.6543 125.162 94.5755 125.328 94.4004C125.495 94.2341 125.783 93.7876 126.195 93.0697L127.893 90.1369H127.902Z" fill="#1D2858"/><path d="M140.665 82.6518L139.44 84.5253C140.735 83.1771 141.908 82.468 142.941 82.3892L140.044 87.4143C139.387 87.4143 138.836 87.5193 138.407 87.7382C137.978 87.9483 137.61 88.2547 137.321 88.6399C137.032 89.0251 136.481 89.9093 135.684 91.2925L132.427 96.9305H128.829L137.067 82.6605H140.665V82.6518Z" fill="#1D2858"/><path d="M153.106 87.0902H149.359L151.11 84.0611C151.617 83.1769 151.897 82.6341 151.941 82.4153C151.985 82.1964 151.88 82.0826 151.6 82.0826C151.293 82.0826 151.022 82.2139 150.786 82.4853C150.549 82.748 150.173 83.3258 149.665 84.2012L144.999 92.2904C144.509 93.1308 144.237 93.6824 144.167 93.945C144.106 94.2076 144.211 94.3302 144.509 94.3302C144.806 94.3302 145.043 94.1989 145.279 93.945C145.515 93.6824 145.909 93.0783 146.461 92.1241L147.722 89.9354H151.469L151.075 90.6183C150.033 92.4217 149.192 93.6999 148.544 94.4528C147.897 95.2057 147.047 95.871 146.006 96.4313C144.955 97.0003 143.905 97.2805 142.845 97.2805C141.786 97.2805 140.981 97.0441 140.543 96.5626C140.114 96.0811 140.018 95.4158 140.28 94.5666C140.534 93.7174 141.164 92.4392 142.145 90.7321L145.078 85.6457C145.804 84.3851 146.382 83.4483 146.82 82.818C147.258 82.1877 147.809 81.5924 148.501 81.0058C149.192 80.4192 149.945 79.964 150.759 79.6313C151.582 79.2987 152.396 79.1323 153.211 79.1323C154.314 79.1323 155.075 79.395 155.496 79.9027C155.916 80.4192 156.021 81.0583 155.802 81.8287C155.583 82.5991 155.005 83.7985 154.069 85.4268L153.114 87.0814L153.106 87.0902Z" fill="#1D2858"/><path d="M162.324 79.5089L160.065 83.4309C160.573 83.0807 161.055 82.8269 161.519 82.6518C161.974 82.4767 162.412 82.3891 162.823 82.3891C163.453 82.3891 163.874 82.5817 164.092 82.9669C164.311 83.3521 164.32 83.7986 164.128 84.3064C163.935 84.8141 163.445 85.7334 162.674 87.0728L156.993 96.9129H153.394L159.19 86.8627C159.671 86.031 159.943 85.497 160.013 85.2606C160.083 85.0242 159.995 84.9017 159.759 84.9017C159.54 84.9017 159.321 85.0242 159.102 85.2694C158.884 85.5145 158.568 85.996 158.148 86.7226L152.265 96.9129H148.667L158.717 79.5001H162.315L162.324 79.5089Z" fill="#1D2858"/><path d="M166.502 88.1759H163.122L163.674 87.2217C164.313 86.1186 164.908 85.2694 165.469 84.6653C166.02 84.07 166.756 83.536 167.657 83.0808C168.559 82.6168 169.513 82.3892 170.529 82.3892C171.746 82.3892 172.516 82.6518 172.831 83.1683C173.146 83.6848 173.146 84.3239 172.831 85.0856C172.516 85.8385 171.684 87.3968 170.319 89.7605L166.187 96.9217H162.685L163.42 95.6435C162.904 96.1601 162.396 96.5365 161.906 96.7904C161.415 97.0443 160.925 97.1756 160.444 97.1756C159.813 97.1756 159.358 96.9567 159.078 96.5365C158.798 96.1075 159.078 95.1795 159.91 93.735L160.584 92.5619C161.196 91.4939 161.757 90.7673 162.265 90.3821C162.764 89.9969 163.718 89.5416 165.118 89.0251C166.624 88.4648 167.473 88.0884 167.666 87.8958C167.859 87.7032 168.13 87.3092 168.471 86.7139C168.9 85.9698 169.137 85.4795 169.172 85.2606C169.207 85.033 169.119 84.9192 168.909 84.9192C168.664 84.9192 168.463 85.0155 168.288 85.2081C168.121 85.4007 167.806 85.891 167.342 86.6876L166.475 88.1847L166.502 88.1759ZM166.51 90.1369C165.644 90.6447 165.057 91.0737 164.768 91.4151C164.479 91.7565 164.147 92.2555 163.77 92.9034C163.341 93.6387 163.105 94.1202 163.061 94.3304C163.017 94.5492 163.114 94.6543 163.35 94.6543C163.578 94.6543 163.77 94.5755 163.937 94.4004C164.103 94.2341 164.392 93.7876 164.803 93.0697L166.502 90.1369H166.51Z" fill="#1D2858"/><path d="M181.191 79.5089L171.141 96.9217H167.438L177.488 79.5089H181.191Z" fill="#1D2858"/><path d="M186.182 79.5089L176.132 96.9217H172.429L182.479 79.5089H186.182Z" fill="#1D2858"/><path d="M189.551 90.0406H184.893L183.116 93.1222C182.748 93.7701 182.538 94.1815 182.512 94.3741C182.486 94.558 182.582 94.6543 182.801 94.6543C183.072 94.6543 183.326 94.5317 183.563 94.2866C183.799 94.0415 184.123 93.56 184.534 92.8508L185.62 90.9686H189.034L188.421 92.0192C187.914 92.9034 187.476 93.5775 187.108 94.0502C186.741 94.523 186.233 95.0307 185.585 95.5647C184.937 96.1075 184.272 96.5102 183.598 96.7729C182.924 97.0443 182.188 97.1756 181.409 97.1756C180.63 97.1756 180.052 97.0443 179.623 96.7729C179.194 96.5102 178.949 96.1425 178.896 95.6786C178.835 95.2146 178.905 94.7068 179.107 94.1553C179.299 93.595 179.711 92.7896 180.323 91.7303L182.722 87.5718C183.44 86.3199 184.149 85.3394 184.85 84.6216C185.541 83.9037 186.32 83.3434 187.178 82.967C188.036 82.5818 188.877 82.3892 189.7 82.3892C190.706 82.3892 191.407 82.6168 191.801 83.0808C192.195 83.5448 192.3 84.1576 192.125 84.9192C191.949 85.6809 191.459 86.7577 190.663 88.1409L189.568 90.0319L189.551 90.0406ZM187.283 87.7119L187.887 86.6701C188.316 85.9347 188.553 85.4533 188.614 85.2431C188.675 85.033 188.605 84.9192 188.404 84.9192C188.15 84.9192 187.949 85.0155 187.782 85.1906C187.616 85.3745 187.301 85.8647 186.837 86.6701L186.233 87.7119H187.283Z" fill="#1D2858"/><path d="M198.656 82.6518L197.833 83.965C198.394 83.4397 198.945 83.0457 199.47 82.7831C199.996 82.5205 200.512 82.3892 201.002 82.3892C201.624 82.3892 202.027 82.5642 202.211 82.9144C202.403 83.2646 202.394 83.7111 202.202 84.2451C202.009 84.7792 201.545 85.6721 200.827 86.9153L195.049 96.9217H191.451L197.159 87.0378C197.728 86.0573 198.043 85.462 198.113 85.2431C198.183 85.033 198.096 84.9192 197.86 84.9192C197.606 84.9192 197.369 85.0418 197.168 85.2957C196.958 85.5408 196.546 86.2061 195.925 87.2829L190.357 96.9305H186.759L194.997 82.6605H198.656V82.6518Z" fill="#1D2858"/><path d="M217.881 90.0406H213.223L211.437 93.1222C211.07 93.7701 210.86 94.1815 210.833 94.3741C210.798 94.558 210.895 94.6543 211.122 94.6543C211.394 94.6543 211.647 94.5317 211.884 94.2866C212.12 94.0415 212.435 93.56 212.847 92.8508L213.932 90.9686H217.347L216.734 92.0192C216.226 92.9034 215.788 93.5775 215.421 94.0502C215.053 94.523 214.545 95.0307 213.897 95.5647C213.25 96.1075 212.584 96.5102 211.91 96.7729C211.236 97.0443 210.501 97.1756 209.721 97.1756C208.942 97.1756 208.365 97.0443 207.936 96.7729C207.507 96.5102 207.261 96.1425 207.209 95.6786C207.148 95.2146 207.218 94.7068 207.419 94.1553C207.612 93.595 208.023 92.7896 208.636 91.7303L211.035 87.5718C211.753 86.3199 212.462 85.3394 213.162 84.6216C213.854 83.9037 214.633 83.3434 215.491 82.967C216.349 82.5818 217.189 82.3892 218.012 82.3892C219.019 82.3892 219.719 82.6168 220.113 83.0808C220.498 83.5448 220.612 84.1576 220.428 84.9192C220.253 85.6809 219.763 86.7577 218.966 88.1409L217.872 90.0319L217.881 90.0406ZM215.613 87.7119L216.217 86.6701C216.646 85.9347 216.883 85.4533 216.944 85.2431C217.005 85.033 216.935 84.9192 216.734 84.9192C216.489 84.9192 216.279 85.0155 216.112 85.1906C215.946 85.3745 215.631 85.8647 215.176 86.6701L214.572 87.7119H215.622H215.613Z" fill="#1D2858"/><path d="M87.6062 57.4036H134.399L115.98 38.5989L214.521 40.7525L96.5796 28.9951L108.337 43.3H69.353L61.5176 58.1915H45.2517L33.3018 76.8037H57.2017L68.7577 57.4036H83.3602L85.4701 53.0351L87.5974 57.4036H87.6062ZM98.4093 49.2969L99.8363 46.4342L101.272 49.2881L104.476 49.7434L102.165 51.9758L102.717 55.1099L99.8538 53.6304L96.9998 55.1187L97.5426 51.9845L95.2226 49.7609L98.418 49.2969H98.4093ZM142.611 79.0186L146.962 76.7949H142.996L142.602 79.0186H142.611ZM126.363 43.3L140.86 62.4988H92.2286L90.1625 64.5561L91.2743 71.087L85.4963 68.0141L79.7359 71.1045L80.8302 64.5736L78.7291 62.4988H70.3335L62.4982 76.8037H143.005L143.486 74.0898L139.766 70.5967L144.896 69.8701L147.19 65.379L149.492 69.8613L154.631 70.5704L150.919 74.0723L151.409 76.8037H167.518L145.377 52.9038L214.144 45.8476L126.371 43.3H126.363ZM151.794 79.0011L151.401 76.8037H147.435L151.794 79.0011ZM94.8287 59.9162L88.3766 58.9794L87.6062 57.4036H83.369L82.6073 58.9882L76.1552 59.9512L78.7378 62.4988H92.2373L94.8287 59.9162ZM146.962 76.7949H147.435L147.198 76.6724L146.962 76.7949Z" fill="#B32725"/><path d="M204.619 96.519C204.925 96.0812 205.512 95.127 206.361 93.6387L212.708 82.643H209.355L208.48 83.7198C208.444 83.2733 208.304 82.9407 208.068 82.713C207.823 82.4942 207.481 82.3804 207.026 82.3804C206.203 82.3804 205.415 82.678 204.663 83.2733C203.918 83.8686 203.148 84.8404 202.369 86.1974L199.375 91.38C198.832 92.3255 198.482 93.0522 198.342 93.5687C198.202 94.0764 198.245 94.4967 198.491 94.8031C198.727 95.1182 199.165 95.2758 199.813 95.2758C200.189 95.2758 200.592 95.1883 201.029 95.0219C201.467 94.8468 201.94 94.593 202.448 94.2515L201.826 95.3283C201.467 95.9499 201.187 96.3526 200.986 96.5452C200.784 96.7378 200.548 96.8341 200.277 96.8341C199.9 96.8341 199.891 96.519 200.25 95.8886H196.757C196.319 96.6678 196.083 97.2981 196.031 97.7884H203.323C203.892 97.3331 204.321 96.9042 204.61 96.5015L204.619 96.519ZM202.448 92.4744C202.491 92.2818 202.702 91.8703 203.069 91.2312L205.836 86.4337C206.186 85.8297 206.457 85.427 206.667 85.2256C206.869 85.0242 207.079 84.9192 207.289 84.9192C207.499 84.9192 207.587 85.0067 207.552 85.1906C207.508 85.3744 207.298 85.7859 206.921 86.4337L204.365 90.8548C203.901 91.6602 203.559 92.1855 203.358 92.4131C203.157 92.6407 202.929 92.7545 202.693 92.7545C202.483 92.7545 202.404 92.6582 202.448 92.4656V92.4744ZM196.249 98.6813C196.67 99.1541 197.458 99.3817 198.604 99.3817C199.541 99.3817 200.382 99.2591 201.143 98.9965C201.581 98.8564 201.984 98.6638 202.369 98.4362H196.101C196.136 98.5238 196.179 98.6025 196.241 98.6726L196.249 98.6813ZM203.332 97.8146C203.332 97.8146 203.262 97.8672 203.227 97.9022C202.955 98.1123 202.666 98.2874 202.378 98.4537H214.074V97.8146H203.332ZM196.039 97.8146H19.5127V98.4537H196.101C196.031 98.2786 196.013 98.0685 196.039 97.8146Z" fill="#1D2858"/><path d="M61.9296 28.0058L58.9356 27.5593L57.5874 24.7578L57.2022 25.5633V32.0329L57.5961 31.814L60.275 33.2673L59.7585 30.1857L61.9209 27.997L61.9296 28.0058ZM19.8115 1.08556L18.866 2.97654L20.8883 3.29171L19.8115 1.08556ZM55.4338 30.2032L53.2626 28.0233L56.2567 27.5681L57.2109 25.572V9.00842L20.8971 3.29171L22.4116 6.39957L28.2597 7.27503L24.005 11.3897L24.9855 17.2289L19.759 14.4538L14.515 17.1852L15.5393 11.3546L11.3196 7.20499L17.1764 6.37331L18.8748 2.96779L0 0V62.4987H13.8847L14.0773 61.3081L10.8294 58.0339L15.3029 57.351L17.299 53.1313L19.3038 57.3423L23.7773 58.0076L20.5469 61.2906L20.7483 62.4899H39.3692L57.1934 35.4559V32.0329L54.9172 33.276L55.425 30.1944L55.4338 30.2032ZM15.9683 26.9727L16.6599 25.6333L17.3515 26.9727L18.9011 27.1829L17.7805 28.2334L18.0519 29.7042L16.6686 29.0126L15.2854 29.7129L15.5481 28.2422L14.4187 27.2004L15.9683 26.9815V26.9727ZM20.2055 48.1675L17.0801 46.5917L13.9635 48.1763L14.5501 44.832L12.02 42.4683L15.5043 41.978L17.0626 38.9315L18.6297 41.9693L22.114 42.4508L19.5927 44.8233L20.1967 48.1587L20.2055 48.1675ZM26.2374 23.2083L32.6544 22.2365L35.5172 16.301L37.2418 19.829L37.9247 19.7327L39.1678 17.3165L40.4197 19.724L43.2124 20.1004L41.1989 21.9827L41.3214 22.6392L44.8495 23.147L40.2184 27.7782L41.3302 34.2915L35.5785 31.2275L29.8442 34.3178L30.921 27.7957L26.2636 23.1908L26.2374 23.2083ZM42.1444 48.0187L37.6971 45.7512L33.2585 48.0274L34.0989 43.2124L30.5008 39.8069L35.4646 39.0978L37.6796 34.7118L39.912 39.089L44.8758 39.7806L41.2864 43.1949L42.1444 48.0012V48.0187ZM37.1455 22.0002L36.6728 24.6528L39.1591 23.3921L41.6541 24.6353L41.2952 22.6392L38.3974 22.219L37.2331 19.829L35.132 20.1267L37.1543 22.0002H37.1455ZM13.3244 65.9392L17.3252 63.7418L21.3348 65.9217L20.7658 62.4987H13.8935L13.3332 65.9392H13.3244Z" fill="#1D2858"/></g><defs><clipPath id="clip0_285_270"><rect width="249.767" height="106" fill="white"/></clipPath></defs></svg>