<?xml version="1.0" encoding="UTF-8"?>
<svg version="1.1" xmlns="http://www.w3.org/2000/svg" width="2900" height="1283">
<path d="M0 0 C957 0 1914 0 2900 0 C2900 423.39 2900 846.78 2900 1283 C1943 1283 986 1283 0 1283 C0 859.61 0 436.22 0 0 Z " fill="#FEFEFE" transform="translate(0,0)"/>
<path d="M0 0 C2.66178566 0.53150973 5.32741719 1.00471732 8.00292969 1.46142578 C27.64730041 4.92015553 45.87132845 11.85169666 63.76074219 20.55126953 C64.55722168 20.93653809 65.35370117 21.32180664 66.17431641 21.71875 C88.102034 32.45237894 107.11600856 46.77063713 124.76074219 63.55126953 C125.61055664 64.35806152 125.61055664 64.35806152 126.47753906 65.18115234 C135.07113847 73.399672 142.73134111 81.96347327 149.76074219 91.55126953 C150.25848145 92.22593262 150.7562207 92.9005957 151.26904297 93.59570312 C158.09139716 102.89385994 164.4507915 112.29437376 169.76074219 122.55126953 C170.28764648 123.56616455 170.28764648 123.56616455 170.82519531 124.6015625 C182.04678716 146.53512364 189.22996032 169.37577264 193.76074219 193.55126953 C193.93863281 194.45280762 194.11652344 195.3543457 194.29980469 196.28320312 C205.50690467 254.59792474 189.67797775 318.83830644 156.76074219 367.55126953 C153.90996185 371.66996067 150.88350428 375.63515707 147.76074219 379.55126953 C146.70306641 380.89705078 146.70306641 380.89705078 145.62402344 382.27001953 C139.68548263 389.69053013 133.28906167 396.6523256 126.76074219 403.55126953 C126.12265625 404.23189453 125.48457031 404.91251953 124.82714844 405.61376953 C119.87884056 410.7400741 114.33528774 415.12932832 108.76074219 419.55126953 C107.25833984 420.76169922 107.25833984 420.76169922 105.72558594 421.99658203 C75.4245887 446.12814425 39.54526755 461.16349841 1.76074219 468.55126953 C0.86468262 468.73238281 -0.03137695 468.91349609 -0.95458984 469.10009766 C-14.43699806 471.71785343 -27.9300639 471.79239531 -41.61425781 471.80126953 C-43.01821304 471.80228165 -43.01821304 471.80228165 -44.45053101 471.80331421 C-58.25554786 471.78750801 -71.68363666 471.39617364 -85.23925781 468.55126953 C-86.09068359 468.37966309 -86.94210937 468.20805664 -87.81933594 468.03125 C-134.62255652 458.39681221 -174.78691376 435.2137295 -209.23925781 402.55126953 C-210.37041016 401.48392578 -210.37041016 401.48392578 -211.52441406 400.39501953 C-216.91288321 395.16724032 -221.58243279 389.4307058 -226.23925781 383.55126953 C-227.01011719 382.60896484 -227.78097656 381.66666016 -228.57519531 380.69580078 C-255.37394129 347.17568647 -271.82600707 305.96287155 -277.23925781 263.55126953 C-277.3349707 262.85187256 -277.43068359 262.15247559 -277.52929688 261.43188477 C-284.92334115 199.90098046 -266.62469322 137.14404207 -228.80175781 88.41064453 C-226.6595749 85.74779216 -224.47208616 83.1383843 -222.23925781 80.55126953 C-221.58183594 79.78298828 -220.92441406 79.01470703 -220.24707031 78.22314453 C-209.51291946 65.99026319 -198.04503765 54.44007931 -184.91748047 44.78955078 C-183.28351829 43.58392725 -181.67305281 42.35167547 -180.06347656 41.11376953 C-149.62036607 18.09907347 -112.74374626 4.34384759 -75.23925781 -1.44873047 C-74.51125977 -1.56587402 -73.78326172 -1.68301758 -73.03320312 -1.80371094 C-49.09451054 -5.49714058 -23.6807043 -4.78876465 0 0 Z " fill="#7F7F7F" transform="translate(1805.2392578125,298.44873046875)"/>
<path d="M0 0 C0.89525391 0.00021149 1.79050781 0.00042297 2.71289062 0.00064087 C17.0989749 0.03444637 30.91666757 0.91457553 44.9375 4.375 C45.69208496 4.55691895 46.44666992 4.73883789 47.22412109 4.92626953 C52.21657515 6.1696606 57.07764226 7.69094467 61.9375 9.375 C62.73687988 9.64795898 63.53625977 9.92091797 64.35986328 10.20214844 C82.64655473 16.53929405 100.28489929 24.90235516 115.9375 36.375 C117.5153125 37.52742188 117.5153125 37.52742188 119.125 38.703125 C129.88003402 46.70461594 139.58792992 55.7779413 148.9375 65.375 C146.9375 66.375 146.9375 66.375 144.34765625 65.5546875 C143.24292969 65.12414062 142.13820313 64.69359375 141 64.25 C135.12082875 62.04618996 129.19334598 60.23437106 123.125 58.625 C122.34970947 58.41472168 121.57441895 58.20444336 120.77563477 57.98779297 C110.42930925 55.29583337 100.22007955 55.13411512 89.5625 55.125 C88.49769409 55.12398788 88.49769409 55.12398788 87.41137695 55.12295532 C51.87095856 55.17650417 19.06849395 67.28214604 -8.0625 90.375 C-9.0525 91.21160156 -10.0425 92.04820312 -11.0625 92.91015625 C-17.47537916 98.53033229 -22.9335409 104.57015121 -28.0625 111.375 C-28.79082031 112.33792969 -29.51914063 113.30085938 -30.26953125 114.29296875 C-48.67522607 139.72570643 -58.25144416 168.6441641 -58.24780273 199.95678711 C-58.24997763 202.04106446 -58.26816002 204.12480092 -58.28710938 206.20898438 C-58.34400446 219.10603091 -56.81970397 231.2993299 -52.9375 243.625 C-52.63038086 244.60807129 -52.32326172 245.59114258 -52.00683594 246.60400391 C-45.08594672 268.15234263 -34.39849978 286.71502902 -19.0625 303.375 C-18.20140625 304.31859375 -17.3403125 305.2621875 -16.453125 306.234375 C9.77751519 333.7067023 46.38653537 348.42025374 83.96875 349.59765625 C104.62694998 350.00885159 122.27092173 346.8065568 141.76538086 340.08349609 C143.80832207 339.41713492 145.84673171 338.86802999 147.9375 338.375 C137.31429082 362.5723098 95.62232128 382.37427467 72.72167969 391.39916992 C34.32031249 405.70322771 -7.1139292 408.57844337 -47.0625 399.375 C-47.76922852 399.21692871 -48.47595703 399.05885742 -49.20410156 398.89599609 C-97.43210902 387.93699571 -140.28125878 357.03324989 -168.0625 316.375 C-168.69236816 315.45775146 -168.69236816 315.45775146 -169.33496094 314.52197266 C-198.58292476 271.35782308 -210.03096499 216.78775891 -200.37890625 165.5390625 C-189.12875653 111.12736368 -158.32425898 63.36814854 -111.80078125 32.515625 C-92.41528757 20.04182305 -71.51567504 10.97180889 -49.25 5.1875 C-48.3019751 4.93701904 -47.3539502 4.68653809 -46.37719727 4.4284668 C-31.07572322 0.61760664 -15.69473319 -0.03445345 0 0 Z " fill="#FEFEFE" transform="translate(1765.0625,330.625)"/>
<path d="M0 0 C1.03398926 0.29003906 1.03398926 0.29003906 2.08886719 0.5859375 C32.43141441 9.25141595 56.49876388 28.01961256 72.23925781 55.41455078 C81.45922749 72.15748123 85.4154048 89.61815335 85.3125 108.625 C85.30926727 109.69281204 85.30926727 109.69281204 85.30596924 110.78219604 C85.17223029 138.25086244 76.34606584 161.71024601 59 183 C58.38769531 183.77730469 57.77539062 184.55460938 57.14453125 185.35546875 C40.59502811 205.29250345 13.53937181 218.84808018 -12 222 C-47.36531672 223.72961164 -77.12150525 216.98702363 -104.0625 192.75 C-114.12325596 183.42346413 -121.70947069 173.11456993 -128 161 C-128.46019531 160.13246094 -128.92039062 159.26492188 -129.39453125 158.37109375 C-132.33772624 152.40061248 -134.31110026 146.1633505 -136.25 139.8125 C-136.50861816 138.96864746 -136.76723633 138.12479492 -137.03369141 137.25537109 C-144.88392021 110.59392022 -139.92689895 80.59279552 -127.25 56.25 C-111.25105078 26.98306895 -84.28272966 8.32042343 -52.70703125 -0.96875 C-35.97911255 -5.05149626 -16.53126854 -4.7958845 0 0 Z " fill="#FEFEFE" transform="translate(1881,423)"/>
<path d="M0 0 C14.52 0 29.04 0 44 0 C52.79136023 20.87948054 61.45689355 41.80515399 70.03791809 62.77171326 C72.21823261 68.09703778 74.40635098 73.41908113 76.6015625 78.73828125 C76.88955215 79.43614243 77.17754181 80.1340036 77.47425842 80.85301208 C78.0503516 82.24894305 78.62644717 83.64487303 79.20254517 85.040802 C84.57648716 98.06515944 89.89437985 111.11136425 95.17950439 124.17199707 C100.40506649 137.08413311 105.66225875 149.98308292 110.9375 162.875 C111.31161011 163.78976105 111.68572021 164.70452209 112.07116699 165.64700317 C115.86228227 174.91661762 119.65946257 184.18362577 123.48280334 193.44000244 C124.97013049 197.04098519 126.4550286 200.64296779 127.93997192 204.24493408 C128.97402458 206.74958318 130.01220768 209.25249265 131.05053711 211.75537109 C131.67973033 213.2808397 132.30872896 214.80638858 132.9375 216.33203125 C133.36120628 217.34776466 133.36120628 217.34776466 133.79347229 218.38401794 C135.50105645 222.54263695 136.8399313 226.6662047 138 231 C138.66 231 139.32 231 140 231 C140.34160156 229.73285156 140.68320312 228.46570313 141.03515625 227.16015625 C143.57991587 218.70374704 147.09430483 210.6012535 150.4375 202.4375 C151.18456229 200.6035153 151.93121645 198.76936429 152.67749023 196.93505859 C154.68811468 191.99659368 156.70453314 187.06051557 158.72253418 182.12506104 C161.3589576 175.67558586 163.99074612 169.22421725 166.62348938 162.77323914 C168.76265345 157.53221712 170.90299685 152.29168574 173.04663086 147.05249023 C177.08803225 137.1706878 181.10200469 127.27911192 185.05769348 117.3626709 C188.40154278 108.98238666 191.79059494 100.62061779 195.18170166 92.2593689 C200.52600553 79.08058975 205.85546195 65.89636621 211.125 52.6875 C215.44813796 41.85957392 219.79149574 31.03994412 224.16033936 20.2303772 C224.84177826 18.54338163 225.52232927 16.85602712 226.20196533 15.16830444 C227.14649513 12.82343497 228.09428636 10.47991067 229.04296875 8.13671875 C229.32777603 7.42789551 229.61258331 6.71907227 229.90602112 5.98876953 C231.88573816 1.11426184 231.88573816 1.11426184 233 0 C247.52 0 262.04 0 277 0 C277 92.73 277 185.46 277 281 C267.43 281 257.86 281 248 281 C247.67 201.14 247.34 121.28 247 39 C240.73 54.18 234.46 69.36 228 85 C223.60044644 95.57312064 219.1997803 106.14562665 214.78857422 116.71386719 C212.09861454 123.15899371 209.41336397 129.60608242 206.72772217 136.05300903 C205.17668316 139.77627844 203.62547872 143.4994789 202.07421875 147.22265625 C201.75322205 147.99308762 201.43222534 148.76351898 201.10150146 149.55729675 C198.88451084 154.87802683 196.66664549 160.19839178 194.44844055 165.51861572 C185.99319898 185.79822533 177.54239234 206.07964544 169.125 226.375 C168.78035706 227.20575043 168.43571411 228.03650085 168.08062744 228.89242554 C164.32588616 237.94481422 160.58442483 247.00245417 156.8671875 256.0703125 C156.53751984 256.87383148 156.20785217 257.67735046 155.86819458 258.50521851 C154.30882842 262.30605493 152.75180409 266.10781032 151.19970703 269.91162109 C150.65407295 271.2432057 150.10834316 272.57475109 149.5625 273.90625 C149.08941406 275.06447266 148.61632812 276.22269531 148.12890625 277.41601562 C147 280 147 280 146 281 C143.46950598 281.07313567 140.96695163 281.09247527 138.4375 281.0625 C137.37112305 281.05573242 137.37112305 281.05573242 136.28320312 281.04882812 C134.52209987 281.03700864 132.76103964 281.01907263 131 281 C126.17181204 272.09305639 122.47445097 262.69335706 118.64578247 253.32980347 C116.55014491 248.20501083 114.44193963 243.08538364 112.3359375 237.96484375 C111.89921219 236.90195633 111.46248688 235.83906891 111.01252747 234.74397278 C106.2359396 223.12509343 101.40094934 211.53072131 96.5625 199.9375 C94.88900459 195.92591397 93.21587874 191.91417394 91.54296875 187.90234375 C91.14729202 186.95351318 90.7516153 186.00468262 90.34394836 185.02709961 C87.00748778 177.0236222 83.68674425 169.0137317 80.375 161 C73.9464671 145.44589975 67.47719393 129.90917868 60.97265625 114.38671875 C60.41904419 113.06525848 60.41904419 113.06525848 59.85424805 111.71710205 C58.03255778 107.36876838 56.21023022 103.02070527 54.38623047 98.67333984 C46.20008453 79.13902535 38.11257591 59.56562425 30 40 C29.67 119.53 29.34 199.06 29 281 C19.43 281 9.86 281 0 281 C0 188.27 0 95.54 0 0 Z " fill="#020202" transform="translate(363,393)"/>
<path d="M0 0 C9.57 0 19.14 0 29 0 C34.06779805 10.6905133 38.8423007 21.47317896 43.47445679 32.35876465 C45.46627931 37.03947624 47.46616953 41.71674229 49.46484375 46.39453125 C49.86063126 47.32147797 50.25641876 48.24842468 50.66419983 49.20346069 C53.80914495 56.56530352 56.99092768 63.91041713 60.1875 71.25 C66.24384551 85.17545459 72.18223275 99.15077446 78.125 113.125 C85.62497378 130.76048388 93.1620425 148.37880257 100.77355957 165.96643066 C107.17376082 180.7552122 113.53359062 195.5609157 119.875 210.375 C126.64852187 226.19752254 133.44727497 242.00831799 140.30859375 257.79296875 C140.95997314 259.29609619 140.95997314 259.29609619 141.62451172 260.82958984 C142.63776492 263.16507192 143.65562607 265.49832156 144.67626953 267.83056641 C145.23355472 269.11223675 145.79068687 270.39397364 146.34765625 271.67578125 C146.85433838 272.83634033 147.36102051 273.99689941 147.88305664 275.19262695 C149 278 149 278 149 280 C138.44 280 127.88 280 117 280 C108.1931038 260.27751415 99.86825832 240.3793119 91.65074158 220.40534973 C91.34576248 219.66491928 91.04078339 218.92448883 90.7265625 218.16162109 C90.46439941 217.5242099 90.20223633 216.88679871 89.93212891 216.23007202 C88.64242411 213.14451749 87.31736327 210.07384763 86 207 C14.225 206.505 14.225 206.505 -59 206 C-59.33 207.65 -59.66 209.3 -60 211 C-61.01646096 213.69297078 -62.06823175 216.34520447 -63.17578125 219 C-63.49737213 219.78100067 -63.81896301 220.56200134 -64.15029907 221.3666687 C-65.20001155 223.9129356 -66.25611589 226.45649461 -67.3125 229 C-68.03690693 230.75261519 -68.7609441 232.50538326 -69.48461914 234.25830078 C-70.94800154 237.80111076 -72.41395013 241.34284273 -73.88183594 244.88378906 C-75.82892679 249.58280363 -77.76389374 254.28671443 -79.6953125 258.9921875 C-80.51695106 260.9906967 -81.33895884 262.98905337 -82.16122437 264.98730469 C-82.67769282 266.24321823 -83.19350376 267.49940237 -83.70864868 268.75585938 C-84.41663814 270.48145905 -85.1281374 272.20561749 -85.83984375 273.9296875 C-86.43333618 275.37190674 -86.43333618 275.37190674 -87.03881836 276.84326172 C-88 279 -88 279 -89 280 C-91.29151417 280.08790975 -93.58572524 280.10694038 -95.87890625 280.09765625 C-96.90889992 280.09553383 -96.90889992 280.09553383 -97.95970154 280.09336853 C-100.16067801 280.08775479 -102.36155409 280.07520007 -104.5625 280.0625 C-106.05143083 280.05748676 -107.54036324 280.05292355 -109.02929688 280.04882812 C-112.68623075 280.03778093 -116.34310558 280.02050713 -120 280 C-119.37763854 276.27757393 -118.31980764 273.12054932 -116.796875 269.671875 C-116.3217749 268.58688721 -115.8466748 267.50189941 -115.35717773 266.3840332 C-114.82680908 265.18480225 -114.29644043 263.98557129 -113.75 262.75 C-112.56628777 260.05197052 -111.38665831 257.35216141 -110.20703125 254.65234375 C-109.7217672 253.54338997 -109.7217672 253.54338997 -109.22669983 252.41203308 C-105.03260648 242.8125746 -100.93155634 233.17319727 -96.81643677 223.53970337 C-90.45655521 208.65531441 -84.07470262 193.78743636 -77.44702148 179.02001953 C-73.02029098 169.12315361 -68.75939122 159.15717298 -64.5 149.1875 C-58.07259707 134.14386137 -51.59501321 119.12330495 -45.0625 104.125 C-38.43485914 88.90590146 -31.82637926 73.67882609 -25.25 58.4375 C-24.86146851 57.5370697 -24.47293701 56.6366394 -24.07263184 55.70892334 C-22.52968453 52.13294168 -20.98681253 48.55692755 -19.44412231 44.98083496 C-15.23935003 35.23472903 -11.02629102 25.49220925 -6.8125 15.75 C-6.11555968 14.13859059 -5.41861957 12.52718109 -4.72167969 10.91577148 C-3.14792833 7.27711959 -1.57396013 3.63856161 0 0 Z " fill="#010101" transform="translate(797,394)"/>
<path d="M0 0 C36 0 36 0 43.4375 6.8125 C44.6201516 9.05144309 45.80110473 11.29504066 46.83935547 13.60449219 C48.90394154 17.86568667 51.76024681 21.59071603 54.5 25.4375 C55.59644588 27.04545819 56.68891654 28.65613442 57.77734375 30.26953125 C62.26501275 36.88031146 66.89222534 43.39140162 71.51611328 49.90722656 C74.01672827 53.43392477 76.50787667 56.96729878 79 60.5 C81.97516966 64.7158294 84.95099799 68.93118787 87.9296875 73.14453125 C93.90402057 81.59757697 99.85199034 90.06859593 105.78417969 98.55126953 C111.49790894 106.71846719 117.24560744 114.86142472 123 123 C132.30411277 136.15902965 141.55618192 149.3537978 150.79101562 162.56152344 C158.34661448 173.36644268 165.92111159 184.15745076 173.53222656 194.92333984 C175.52199771 197.73854167 177.50996164 200.55501717 179.49780273 203.37158203 C180.49197901 204.7802004 181.48628053 206.18873038 182.48071289 207.59716797 C185.09446159 211.29915453 187.70654919 215.00229989 190.31640625 218.70703125 C190.85974609 219.47789062 191.40308594 220.24875 191.96289062 221.04296875 C193.00244055 222.51788574 194.04152903 223.99312812 195.08007812 225.46875 C195.54994141 226.13519531 196.01980469 226.80164063 196.50390625 227.48828125 C196.91455322 228.07134033 197.3252002 228.65439941 197.74829102 229.25512695 C199.1369503 231.19090771 200.5705862 233.09411493 202 235 C202.33 157.45 202.66 79.9 203 0 C212.9 0 222.8 0 233 0 C233 92.73 233 185.46 233 281 C220.79 281 208.58 281 196 281 C190.75814338 273.79244714 185.57174559 266.57427885 180.5 259.25 C179.10031026 257.23303833 177.70056916 255.21611229 176.30078125 253.19921875 C175.59131348 252.17618652 174.8818457 251.1531543 174.15087891 250.09912109 C172.03450077 247.04971087 169.91449792 244.00285961 167.79296875 240.95703125 C161.92236448 232.52861997 156.05529522 224.09856756 150.25 215.625 C146.15974064 209.65669918 142.00356717 203.73779472 137.82226562 197.83300781 C131.51513243 188.91726998 125.29436009 179.94145637 119.06445312 170.97167969 C115.71207245 166.14609104 112.35590597 161.32313736 109 156.5 C104.9755578 150.71554165 100.95160985 144.93074201 96.9296875 139.14453125 C90.63303296 130.08703587 84.33017898 121.03410575 78 112 C70.99703633 102.00573056 64.02813336 91.98793425 57.06298828 81.96728516 C54.95818358 78.93985364 52.85230985 75.91316849 50.74609375 72.88671875 C50.04532715 71.87971924 49.34456055 70.87271973 48.62255859 69.83520508 C47.30396406 67.94044818 45.98528699 66.04574871 44.66650391 64.15112305 C39.76625747 57.10855457 34.8836593 50.05417454 30 43 C29.67 121.54 29.34 200.08 29 281 C19.43 281 9.86 281 0 281 C0 188.27 0 95.54 0 0 Z " fill="#808080" transform="translate(2051,393)"/>
<path d="M0 0 C9.57 0 19.14 0 29 0 C29 40.26 29 80.52 29 122 C79.16 122 129.32 122 181 122 C181 81.74 181 41.48 181 0 C190.57 0 200.14 0 210 0 C210 92.73 210 185.46 210 281 C200.43 281 190.86 281 181 281 C181 237.11 181 193.22 181 148 C130.84 148 80.68 148 29 148 C29 191.89 29 235.78 29 281 C19.43 281 9.86 281 0 281 C0 188.27 0 95.54 0 0 Z " fill="#010101" transform="translate(1257,393)"/>
<path d="M0 0 C57.75 0 115.5 0 175 0 C175 8.91 175 17.82 175 27 C126.82 27 78.64 27 29 27 C29 58.35 29 89.7 29 122 C73.88 122 118.76 122 165 122 C165 130.58 165 139.16 165 148 C120.12 148 75.24 148 29 148 C29 182.98 29 217.96 29 254 C78.5 254 128 254 179 254 C179 262.91 179 271.82 179 281 C119.93 281 60.86 281 0 281 C0 188.27 0 95.54 0 0 Z " fill="#7F7F7F" transform="translate(2355,393)"/>
<path d="M0 0 C5.36594591 4.67036033 10.62241988 9.55038129 14.7421875 15.38671875 C14.7421875 16.04671875 14.7421875 16.70671875 14.7421875 17.38671875 C12.60736644 19.05379811 10.47265298 20.60726478 8.2421875 22.13671875 C6.95234033 23.03272565 5.66327343 23.92985686 4.375 24.828125 C3.74883789 25.26398926 3.12267578 25.69985352 2.47753906 26.14892578 C-0.32059638 28.1447821 -2.97764931 30.31445507 -5.609375 32.5234375 C-7.2578125 33.38671875 -7.2578125 33.38671875 -9.25 33.3125 C-11.99708087 32.04584987 -13.02220719 30.35310524 -14.7578125 27.88671875 C-28.08027271 10.70196732 -51.23610109 1.22762694 -72.2578125 -1.61328125 C-76.636991 -1.90225393 -80.99505298 -1.94738812 -85.3828125 -1.92578125 C-87.16123535 -1.91840942 -87.16123535 -1.91840942 -88.97558594 -1.91088867 C-119.89853111 -1.50046298 -147.24945444 10.7201944 -168.94165039 32.58227539 C-182.07045896 46.44446379 -191.40113593 65.04835539 -196.2578125 83.38671875 C-196.55196045 84.49249268 -196.55196045 84.49249268 -196.85205078 85.62060547 C-205.78438357 120.86059378 -199.75367255 157.41395181 -181.421875 188.5 C-171.3941458 204.27832492 -157.66706098 217.4346254 -141.2578125 226.38671875 C-140.6302002 226.7312207 -140.00258789 227.07572266 -139.35595703 227.43066406 C-114.75863968 240.6411251 -82.25075426 244.67282444 -55.15234375 236.7109375 C-53.850354 236.28090737 -52.55219623 235.83912783 -51.2578125 235.38671875 C-50.17959229 235.01667725 -50.17959229 235.01667725 -49.07958984 234.63916016 C-29.65056831 227.76323661 -15.02826188 216.18946171 -3.2578125 199.38671875 C0.19174084 200.66472391 3.12308779 202.14790312 6.16796875 204.20703125 C6.96396484 204.74199219 7.75996094 205.27695312 8.58007812 205.828125 C9.39669922 206.38371094 10.21332031 206.93929687 11.0546875 207.51171875 C11.89064453 208.07503906 12.72660156 208.63835937 13.58789062 209.21875 C15.64217802 210.60392664 17.69345788 211.99334094 19.7421875 213.38671875 C17.01991828 218.51441349 14.04763992 222.62581241 10.0546875 226.82421875 C9.52214355 227.38915039 8.98959961 227.95408203 8.44091797 228.53613281 C-14.4880898 252.61607064 -45.77859598 265.68010559 -78.94921875 266.56640625 C-120.48221226 267.25271021 -158.85601443 255.62156152 -189.2578125 226.38671875 C-215.18620544 200.75771169 -231.16054438 163.70769486 -231.44110107 127.21017456 C-231.44865115 125.12314012 -231.44881149 123.03626324 -231.4453125 120.94921875 C-231.44437592 120.23263092 -231.44343933 119.51604309 -231.44247437 118.77774048 C-231.34028253 82.77147846 -221.41222494 48.81772975 -197.2578125 21.38671875 C-196.52691406 20.53464844 -195.79601562 19.68257813 -195.04296875 18.8046875 C-171.93730224 -7.63079387 -139.09522892 -23.97616733 -104.2578125 -27.61328125 C-103.03964844 -27.78601563 -101.82148437 -27.95875 -100.56640625 -28.13671875 C-65.44759371 -32.51041391 -27.54898952 -22.32659838 0 0 Z " fill="#020202" transform="translate(1192.2578125,414.61328125)"/>
<path d="M0 0 C3.79439048 2.52959365 4.65793895 5.37850986 6.265625 9.4609375 C6.57577545 10.22600113 6.8859259 10.99106476 7.20547485 11.77931213 C8.22868052 14.30792075 9.23908973 16.84145382 10.25 19.375 C11.3255075 22.03966394 12.40439188 24.70294619 13.48324585 27.36625671 C14.22298539 29.19337223 14.96159899 31.02094399 15.6991272 32.84895325 C19.35535985 41.90748505 23.10669431 50.92514779 26.875 59.9375 C27.51046813 61.46006826 28.14580428 62.98269161 28.78100586 64.50537109 C31.35888278 70.68374194 33.94102759 76.86031322 36.52734375 83.03515625 C41.85808534 95.77382923 47.12164555 108.54028598 52.36727905 121.31420898 C53.20368506 123.34968752 54.04126493 125.38468411 54.8800354 127.41918945 C56.06145309 130.28588588 57.23832204 133.1544088 58.4140625 136.0234375 C58.95701714 137.33729935 58.95701714 137.33729935 59.51094055 138.67770386 C59.8394249 139.4819278 60.16790924 140.28615173 60.50634766 141.11474609 C60.79595367 141.81957123 61.08555969 142.52439636 61.38394165 143.25057983 C62 145 62 145 62 147 C21.74 147 -18.52 147 -60 147 C-59.30361119 143.51805596 -58.72755859 141.02080646 -57.41210938 137.86035156 C-57.08598663 137.07048355 -56.75986389 136.28061554 -56.42385864 135.46681213 C-56.06742279 134.61667038 -55.71098694 133.76652863 -55.34375 132.890625 C-54.78287186 131.5375248 -54.78287186 131.5375248 -54.21066284 130.15708923 C-52.97804143 127.18626704 -51.7390235 124.21815713 -50.5 121.25 C-49.63449471 119.16725373 -48.76942871 117.08432486 -47.90478516 115.0012207 C-46.13189607 110.73177036 -44.35655576 106.46335256 -42.57910156 102.19580078 C-40.23164562 96.55878763 -37.89128584 90.91886498 -35.5546875 85.27734375 C-34.85197267 83.58080919 -34.14925461 81.88427598 -33.4465332 80.18774414 C-32.9327562 78.94735886 -32.9327562 78.94735886 -32.40859985 77.68191528 C-30.68150232 73.51386276 -28.95198368 69.34681521 -27.22265625 65.1796875 C-24.6591833 59.00216021 -22.09818021 52.82361759 -19.53997803 46.64390564 C-18.00137016 42.92719671 -16.4621479 39.21074233 -14.9229126 35.49429321 C-14.19633569 33.73951393 -13.4700465 31.98461548 -12.74407959 30.22958374 C-8.56345159 20.12330474 -4.33931361 10.03932001 0 0 Z " fill="#FDFDFD" transform="translate(810,427)"/>
<path d="M0 0 C13 0 13 0 15.8515625 2.0625 C16.43679688 3.031875 17.02203125 4.00125 17.625 5 C18.69041016 6.65515625 18.69041016 6.65515625 19.77734375 8.34375 C20.13683105 8.94058594 20.49631836 9.53742187 20.86669922 10.15234375 C22.4225243 12.68885478 24.12378226 15.11221419 25.82763672 17.55078125 C27.22628138 19.55558896 28.60479325 21.57312295 29.98046875 23.59375 C33.28001496 28.42417169 36.63882493 33.21234606 40 38 C44.6886458 44.68219324 49.33986467 51.38777751 53.95043945 58.12402344 C57.7721627 63.69593421 61.66528451 69.21600123 65.59033203 74.71557617 C69.86472065 80.73079851 73.8992963 86.84894446 78 93 C78.33 62.31 78.66 31.62 79 0 C82.63 0 86.26 0 90 0 C90.02312023 14.06417715 90.04091345 28.12834982 90.05181217 42.19254208 C90.0570417 48.72236233 90.06414061 55.25216963 90.07543945 61.78198242 C90.08626585 68.07781159 90.09227631 74.37362826 90.09487724 80.66946602 C90.09673194 83.07734944 90.1003534 85.48523214 90.10573006 87.89311028 C90.1129372 91.25289286 90.11399108 94.6126231 90.11352539 97.97241211 C90.11712067 98.97869659 90.12071594 99.98498108 90.12442017 101.02175903 C90.1230455 101.93186234 90.12167084 102.84196564 90.12025452 103.77964783 C90.12117631 104.57515517 90.1220981 105.37066252 90.12304783 106.19027615 C90 108 90 108 89 109 C84.25693036 110.5507644 80.73664298 110.61860127 76 109 C70.89572475 104.28236855 67.48429537 97.85228652 63.87402344 91.98193359 C60.70666042 86.94204669 57.2437459 82.11218121 53.8125 77.25 C52.45519231 75.30206132 51.09968322 73.35286799 49.74609375 71.40234375 C48.78485596 70.01764893 48.78485596 70.01764893 47.80419922 68.60498047 C45.31747581 65.0145422 42.8444915 61.41480269 40.375 57.8125 C36.25989117 51.8117534 32.10796841 45.83740486 27.9375 39.875 C27.39593262 39.10003174 26.85436523 38.32506348 26.29638672 37.52661133 C21.24520584 30.31588936 16.11790436 23.1650661 11 16 C10.67 46.69 10.34 77.38 10 109 C6.7 109 3.4 109 0 109 C0 73.03 0 37.06 0 0 Z " fill="#828282" transform="translate(1842,852)"/>
<path d="M0 0 C10.87954604 9.52598749 19.113614 21.77083851 20.6640625 36.45703125 C21.22817849 46.55067801 20.96995777 55.79261968 17.6640625 65.45703125 C17.32375 66.46378906 16.9834375 67.47054687 16.6328125 68.5078125 C11.63894137 81.78543608 2.27595647 92.16664436 -10.68701172 98.09472656 C-23.40381866 103.6331817 -41.96574509 105.23362312 -55.3359375 100.45703125 C-69.99541593 94.44988759 -80.21136277 85.87072054 -87.3359375 71.45703125 C-88.96046167 67.18147199 -90.26683618 62.90255992 -91.3359375 58.45703125 C-91.52671875 57.67070313 -91.7175 56.884375 -91.9140625 56.07421875 C-94.80472584 38.14139987 -90.22890441 22.17857792 -79.90234375 7.40625 C-72.0107907 -2.67615914 -58.9479954 -9.37920823 -46.42578125 -11.265625 C-29.69489768 -12.76738573 -13.49980116 -10.97206061 0 0 Z M-66.3359375 8.45703125 C-67.31240234 9.24400391 -67.31240234 9.24400391 -68.30859375 10.046875 C-77.41679297 18.23424529 -80.87184078 29.71971315 -81.62109375 41.5546875 C-82.23499452 55.6728781 -79.55610088 67.73497223 -70.56640625 79.0859375 C-63.0150317 87.11340572 -52.20408556 92.965272 -41.0859375 93.66015625 C-28.16062992 93.82172259 -18.10619413 91.89648629 -7.3359375 84.45703125 C-6.005625 83.59078125 -6.005625 83.59078125 -4.6484375 82.70703125 C4.64045574 73.66918918 9.76983736 62.09617382 10.10327148 49.20507812 C10.09302885 34.23327023 7.6316496 21.48534509 -2.8984375 10.08203125 C-12.319808 1.20392642 -22.95182046 -1.72308541 -35.4609375 -1.79296875 C-36.36070313 -1.81359375 -37.26046875 -1.83421875 -38.1875 -1.85546875 C-49.4998726 -1.92048239 -57.5938139 1.39551826 -66.3359375 8.45703125 Z " fill="#828282" transform="translate(1737.3359375,860.54296875)"/>
<path d="M0 0 C10.39236674 8.61493575 17.68616615 20.62715256 20 34 C21.70451262 59.73226299 21.70451262 59.73226299 16 71 C15.55269531 71.94617188 15.10539063 72.89234375 14.64453125 73.8671875 C7.62149692 87.76262808 -2.42270661 95.66213965 -16.921875 101.0546875 C-30.43010413 105.20315381 -47.06212268 104.65915785 -60 99 C-60.80308594 98.649375 -61.60617187 98.29875 -62.43359375 97.9375 C-76.70669244 90.81331902 -84.6090985 78.55852884 -90.0546875 64.04296875 C-94.73895416 48.96427566 -92.8608374 31.16966176 -85.8125 17.25 C-77.71824818 3.19512759 -66.55584976 -5.36959946 -51 -10 C-32.83997598 -13.3152602 -15.2396865 -10.93798776 0 0 Z M-64 7 C-64.886875 7.5775 -65.77375 8.155 -66.6875 8.75 C-76.39647917 18.19657432 -81.11450622 29.46961691 -81.59155273 42.81958008 C-81.70038244 53.16793464 -81.15975619 61.83014153 -76 71 C-75.34837891 72.23363281 -75.34837891 72.23363281 -74.68359375 73.4921875 C-68.92726934 83.23365958 -58.84041209 90.25812823 -48 93.25 C-34.32018016 95.78416903 -21.06303092 94.53578297 -9.24755859 86.86181641 C0.61816178 79.68491506 7.7531319 68.675063 9.7890625 56.52734375 C11.13760642 40.36978978 9.39119229 26.11001684 -0.67578125 12.78125 C-8.64341989 3.90936115 -20.79760798 -1.23431561 -32.53515625 -2.2109375 C-44.28558092 -2.65052173 -54.40906098 0.26286205 -64 7 Z " fill="#828282" transform="translate(993,860)"/>
<path d="M0 0 C3.3 0 6.6 0 10 0 C10.00586624 0.88790222 10.01173248 1.77580444 10.01777649 2.69061279 C10.07595266 11.10468152 10.14816977 19.51849181 10.23571491 27.9323082 C10.28022735 32.25677333 10.31952419 36.58114839 10.34643555 40.90576172 C10.37266119 45.08809309 10.41319561 49.27007419 10.46318626 53.45218658 C10.47972596 55.03872533 10.49131979 56.62532448 10.49761391 58.21193695 C10.55220766 70.7218475 11.13439127 83.62589984 19 94 C24.66432349 99.52881336 31.09311053 101.07578853 38.875 101.3125 C46.23648596 101.16527028 53.06725331 99.79492194 58.65625 94.640625 C65.05086341 86.83324817 67.21892119 77.06644281 67.31884766 67.20703125 C67.32889328 66.47434525 67.3389389 65.74165924 67.34928894 64.98677063 C67.37986875 62.59535417 67.39708494 60.20404829 67.4140625 57.8125 C67.43279451 56.14240585 67.45236941 54.47232096 67.4727478 52.80224609 C67.52386046 48.42939743 67.56359721 44.05651815 67.60089111 39.68353271 C67.6410623 35.21212318 67.69209452 30.74083869 67.7421875 26.26953125 C67.83869941 17.51310658 67.92318251 8.7566195 68 0 C71.63 0 75.26 0 79 0 C79.09330043 9.51965853 79.16406597 19.03915603 79.20724869 28.55917454 C79.22799001 32.98126614 79.25605651 37.4030415 79.30175781 41.82495117 C79.3457023 46.10439532 79.36923782 50.38353821 79.37950897 54.66319084 C79.38681428 56.28362702 79.40107541 57.90404954 79.42292023 59.52435493 C79.60652648 73.72751603 78.38984607 88.52814815 69 100 C59.53346679 109.25577551 49.10873354 111.30384936 36.35400391 111.31469727 C25.36439897 111.13818679 16.90503349 107.77727537 9 100 C-0.41090096 88.85614541 -0.56260436 75.10682833 -0.390625 61.328125 C-0.38314843 59.55166262 -0.37746221 57.7751919 -0.37347412 55.99871826 C-0.35832905 51.36259487 -0.31914574 46.72698672 -0.2746582 42.09106445 C-0.23346293 37.34463467 -0.21541172 32.5981202 -0.1953125 27.8515625 C-0.1526386 18.56748412 -0.08452524 9.2837852 0 0 Z " fill="#838383" transform="translate(1234,852)"/>
<path d="M0 0 C2.22971042 1.91803047 3.62991537 3.87312066 4.81640625 6.5625 C2.17640625 8.5425 -0.46359375 10.5225 -3.18359375 12.5625 C-4.77864583 11.09765625 -6.37369792 9.6328125 -7.96875 8.16796875 C-13.6582993 4.04379809 -18.7607965 3.02906789 -25.62109375 3.125 C-26.74487427 3.13527222 -26.74487427 3.13527222 -27.89135742 3.14575195 C-34.97997588 3.35226162 -39.50347038 4.7413175 -44.55859375 10.0625 C-48.22916128 15.70952697 -48.84587995 19.85685222 -48.18359375 26.5625 C-46.52675616 31.88182068 -44.32908058 34.89998251 -40.18359375 38.5625 C-36.92794526 40.26361482 -36.92794526 40.26361482 -33.30859375 41.5625 C-32.65947021 41.81249756 -32.01034668 42.06249512 -31.34155273 42.32006836 C-27.32639649 43.8433252 -23.2697324 45.20222738 -19.17919922 46.50708008 C-9.04973536 49.74497766 -1.2521898 53.49240915 4.81640625 62.5625 C8.49924734 71.57318453 7.78723506 81.24882855 4.0625 90.12890625 C-0.02857678 98.11868942 -6.09117001 101.9196869 -14.18359375 105.5625 C-24.01514314 108.4675938 -37.61674346 107.96127529 -46.92578125 103.83203125 C-52.77879574 100.54097639 -57.59756953 96.43515074 -62.18359375 91.5625 C-60.95096026 87.86459954 -59.98306924 87.6270154 -56.62109375 85.875 C-55.79480469 85.43800781 -54.96851563 85.00101563 -54.1171875 84.55078125 C-53.47910156 84.22464844 -52.84101562 83.89851562 -52.18359375 83.5625 C-51.73628906 84.10519531 -51.28898438 84.64789062 -50.828125 85.20703125 C-46.2044157 90.73036119 -46.2044157 90.73036119 -40.18359375 94.5625 C-38.91515625 95.1503125 -38.91515625 95.1503125 -37.62109375 95.75 C-28.81219204 97.83210404 -20.01738068 97.34904121 -12.18359375 92.5625 C-7.88366372 88.70920222 -5.42112755 85.29413874 -4.91015625 79.41796875 C-4.37470755 71.82402099 -4.37470755 71.82402099 -7.05859375 65 C-13.4368407 60.02496738 -20.18205686 57.51395485 -27.83178711 55.07641602 C-39.83488893 51.25118243 -50.32489079 47.87804362 -57.16015625 36.578125 C-60.68191355 29.64214497 -60.05745676 20.091236 -58.60546875 12.56640625 C-56.01962116 5.03218669 -50.63570109 0.05192793 -43.7734375 -3.78515625 C-29.67139862 -10.35355166 -12.66321817 -9.0613368 0 0 Z " fill="#828282" transform="translate(817.18359375,856.4375)"/>
<path d="M0 0 C3.2269307 2.30907384 5.36645119 4.42228936 7 8.125 C4.36 10.105 1.72 12.085 -1 14.125 C-2.03125 13.196875 -3.0625 12.26875 -4.125 11.3125 C-10.43150538 5.92145507 -16.45547641 3.76897313 -24.75390625 3.91015625 C-31.99369384 4.60265767 -38.0238852 6.78477924 -43 12.125 C-46.44642298 17.86903829 -46.93482208 23.51447242 -46 30.125 C-44.64568358 34.91526732 -42.21025874 37.33541943 -38.078125 40.03125 C-30.73482933 43.9521047 -23.62471291 46.12623888 -15.55078125 48.11328125 C-5.70883134 50.91753321 1.90291383 56.1056194 7.08984375 64.9921875 C10.26905212 72.05383928 10.00330942 80.53993359 7.875 87.875 C4.35481843 96.84578528 -1.38112699 101.99950286 -10 106.125 C-19.25515927 110.02472079 -32.75075149 109.71707336 -42.1875 106.5 C-48.9123915 103.50763476 -56.14439424 99.60942787 -60 93.125 C-58.64486335 89.05959004 -56.69203082 88.15199731 -53 86.125 C-50.875 86.0625 -50.875 86.0625 -49 87.125 C-48.443125 87.8675 -47.88625 88.61 -47.3125 89.375 C-42.76275473 94.78550789 -36.34700892 97.60781069 -29.40625 98.43359375 C-21.05461153 98.80402933 -14.90999424 96.86420289 -8 92.125 C-3.83115546 87.89529642 -2.82570076 83.09511075 -2.6875 77.3125 C-2.75369377 73.64536518 -2.96708194 71.21387876 -4.25 67.75 C-11.10736171 61.20433655 -20.32618835 58.59860468 -29.125 55.625 C-41.02359264 51.58022753 -50.16379679 47.54639242 -56.12890625 35.92578125 C-58.48831095 28.33971323 -58.70349008 17.15642879 -55.0625 10 C-42.55759677 -7.77931772 -18.29318996 -11.41118602 0 0 Z " fill="#828282" transform="translate(2076,854.875)"/>
<path d="M0 0 C27.72 0 55.44 0 84 0 C84 2.97 84 5.94 84 9 C71.79 9 59.58 9 47 9 C47 41.67 47 74.34 47 108 C43.7 108 40.4 108 37 108 C37 75.33 37 42.66 37 9 C24.79 9 12.58 9 0 9 C0 6.03 0 3.06 0 0 Z " fill="#7E7E7E" transform="translate(1389,852)"/>
<path d="M0 0 C3.63 0 7.26 0 11 0 C11 32.67 11 65.34 11 99 C27.5 99 44 99 61 99 C61 102.3 61 105.6 61 109 C40.87 109 20.74 109 0 109 C0 73.03 0 37.06 0 0 Z " fill="#858585" transform="translate(1097,852)"/>
<path d="M0 0 C3.3 0 6.6 0 10 0 C10 35.64 10 71.28 10 108 C6.7 108 3.4 108 0 108 C0 72.36 0 36.72 0 0 Z " fill="#7F7F7F" transform="translate(1551,852)"/>
</svg>
