<?xml version="1.0" encoding="UTF-8"?>
<svg id="Layer_1" xmlns="http://www.w3.org/2000/svg" version="1.1" viewBox="0 0 288.02 59.9">
  <!-- Generator: Adobe Illustrator 30.0.0, SVG Export Plug-In . SVG Version: 2.1.1 Build 123)  -->
  <defs>
    <style>
      .st0 {
        fill: #76bc43;
      }

      .st1 {
        fill: #002f87;
      }
    </style>
  </defs>
  <g>
    <path class="st1" d="M81.15,25.77h-3.25v7.72h-5.32V11.86h8.57c4.8,0,7.38,3.4,7.38,6.96s-2.58,6.96-7.38,6.96M80.91,16.63h-3.01v4.37h3.01c1.46,0,2.31-1.06,2.31-2.19s-.85-2.19-2.31-2.19"/>
    <polygon class="st1" points="91.47 33.49 91.47 11.86 106.18 11.86 106.18 16.6 96.79 16.6 96.79 20.22 104.81 20.22 104.81 24.95 96.79 24.95 96.79 28.75 106.18 28.75 106.18 33.49 91.47 33.49"/>
    <path class="st1" d="M121.18,33.49l-3.83-8.05h-1.79v8.05h-5.32V11.86h8.57c4.8,0,7.38,3.4,7.38,6.96,0,2.95-1.82,4.8-3.52,5.65l4.68,9.02h-6.17ZM118.57,16.63h-3.01v4.37h3.01c1.46,0,2.31-1.06,2.31-2.19s-.85-2.19-2.31-2.19"/>
    <polygon class="st1" points="135.67 16.6 135.67 20.4 143.69 20.4 143.69 25.14 135.67 25.14 135.67 33.49 130.35 33.49 130.35 11.86 145.05 11.86 145.05 16.6 135.67 16.6"/>
    <path class="st1" d="M162.03,31.24c-1.58,1.58-3.4,2.43-6.04,2.43s-4.47-.85-6.05-2.43c-2.28-2.28-2.19-5.32-2.19-8.57s-.09-6.29,2.19-8.57c1.58-1.58,3.4-2.43,6.05-2.43s4.46.85,6.04,2.43c2.28,2.28,2.19,5.32,2.19,8.57s.09,6.29-2.19,8.57M158.11,17.36c-.39-.52-1.15-.94-2.13-.94s-1.73.43-2.13.94c-.49.64-.79,1.37-.79,5.32s.3,4.65.79,5.29c.39.52,1.15.97,2.13.97s1.73-.46,2.13-.97c.49-.64.79-1.34.79-5.29s-.3-4.68-.79-5.32"/>
    <path class="st1" d="M178.83,33.49l-3.83-8.05h-1.79v8.05h-5.32V11.86h8.57c4.8,0,7.38,3.4,7.38,6.96,0,2.95-1.82,4.8-3.52,5.65l4.68,9.02h-6.17ZM176.21,16.63h-3.01v4.37h3.01c1.46,0,2.31-1.06,2.31-2.19s-.85-2.19-2.31-2.19"/>
    <polygon class="st1" points="202.85 33.49 202.85 23.13 199.78 28.48 196.38 28.48 193.31 23.13 193.31 33.49 188 33.49 188 11.86 193.22 11.86 198.08 21.4 202.94 11.86 208.17 11.86 208.17 33.49 202.85 33.49"/>
    <path class="st1" d="M224.78,33.49l-1-3.22h-6.65l-1.06,3.22h-5.56l7.87-21.63h4.1l7.87,21.63h-5.56ZM220.56,20.06l-1.94,5.77h3.77l-1.82-5.77Z"/>
    <polygon class="st1" points="244.92 33.49 237.99 22.62 237.99 33.49 232.67 33.49 232.67 11.86 237.32 11.86 244.25 22.74 244.25 11.86 249.56 11.86 249.56 33.49 244.92 33.49"/>
    <path class="st1" d="M260.98,33.67c-2.52,0-4.44-.85-6.01-2.43-2.28-2.28-2.19-5.32-2.19-8.57s-.09-6.29,2.19-8.57c1.58-1.58,3.49-2.43,6.01-2.43,4.1,0,7.41,2.28,8.2,7.05h-5.41c-.33-1.22-1-2.31-2.76-2.31-.97,0-1.7.4-2.1.91-.49.64-.82,1.4-.82,5.35s.33,4.71.82,5.35c.39.52,1.12.91,2.1.91,1.76,0,2.43-1.09,2.76-2.31h5.41c-.79,4.77-4.1,7.05-8.2,7.05"/>
    <polygon class="st1" points="272.28 33.49 272.28 11.86 286.98 11.86 286.98 16.6 277.6 16.6 277.6 20.22 285.61 20.22 285.61 24.95 277.6 24.95 277.6 28.75 286.98 28.75 286.98 33.49 272.28 33.49"/>
  </g>
  <g>
    <path class="st1" d="M116.84,53.61h-2.5v5.94h-4.09v-16.66h6.58c3.69,0,5.67,2.62,5.67,5.36s-1.98,5.36-5.67,5.36M116.65,46.56h-2.31v3.37h2.31c1.12,0,1.78-.82,1.78-1.69s-.65-1.68-1.78-1.68"/>
    <path class="st1" d="M133.77,59.55l-2.94-6.2h-1.38v6.2h-4.09v-16.66h6.58c3.69,0,5.67,2.62,5.67,5.36,0,2.27-1.4,3.7-2.71,4.35l3.6,6.95h-4.74ZM131.76,46.56h-2.31v3.37h2.31c1.12,0,1.77-.82,1.77-1.69s-.65-1.68-1.77-1.68"/>
    <path class="st1" d="M151.6,57.82c-1.21,1.22-2.61,1.87-4.65,1.87s-3.43-.66-4.65-1.87c-1.75-1.75-1.68-4.1-1.68-6.6s-.07-4.85,1.68-6.6c1.21-1.22,2.62-1.87,4.65-1.87s3.43.66,4.65,1.87c1.75,1.75,1.68,4.1,1.68,6.6s.07,4.85-1.68,6.6M148.59,47.12c-.3-.4-.89-.72-1.64-.72s-1.33.33-1.63.72c-.37.49-.61,1.05-.61,4.1s.23,3.58.61,4.07c.3.4.89.75,1.63.75s1.33-.35,1.64-.75c.37-.49.61-1.03.61-4.07s-.23-3.6-.61-4.1"/>
    <path class="st1" d="M167.67,59.69c-2.54,0-4.62-.47-6.3-2.2l2.61-2.62c.86.87,2.38,1.17,3.71,1.17,1.61,0,2.38-.54,2.38-1.5,0-.4-.09-.72-.32-.98-.21-.21-.56-.37-1.1-.44l-2.01-.28c-1.47-.21-2.59-.7-3.34-1.47-.77-.8-1.15-1.92-1.15-3.35,0-3.04,2.29-5.27,6.07-5.27,2.38,0,4.18.56,5.6,1.99l-2.57,2.58c-1.05-1.05-2.43-.98-3.15-.98-1.42,0-2.01.82-2.01,1.54,0,.21.07.51.33.77.21.21.56.42,1.14.49l2.01.28c1.49.21,2.57.68,3.27,1.38.89.87,1.24,2.11,1.24,3.65,0,3.39-2.92,5.24-6.42,5.24"/>
    <path class="st1" d="M183.35,59.69c-3.46,0-6.28-2.34-6.28-5.99v-10.81h4.08v10.72c0,1.54.84,2.43,2.2,2.43s2.24-.89,2.24-2.43v-10.72h4.09v10.81c0,3.65-2.87,5.99-6.33,5.99"/>
    <path class="st1" d="M200.05,53.61h-2.5v5.94h-4.09v-16.66h6.58c3.69,0,5.67,2.62,5.67,5.36s-1.98,5.36-5.67,5.36M199.86,46.56h-2.31v3.37h2.31c1.12,0,1.78-.82,1.78-1.69s-.65-1.68-1.78-1.68"/>
    <path class="st1" d="M215.27,53.61h-2.5v5.94h-4.09v-16.66h6.58c3.69,0,5.67,2.62,5.67,5.36s-1.98,5.36-5.67,5.36M215.08,46.56h-2.31v3.37h2.31c1.12,0,1.78-.82,1.78-1.69s-.65-1.68-1.78-1.68"/>
    <polygon class="st1" points="223.91 59.55 223.91 42.89 227.99 42.89 227.99 55.9 234.97 55.9 234.97 59.55 223.91 59.55"/>
    <polygon class="st1" points="244.55 52.76 244.55 59.55 240.46 59.55 240.46 52.76 235.44 42.89 239.9 42.89 242.51 48.88 245.11 42.89 249.57 42.89 244.55 52.76"/>
  </g>
  <path class="st1" d="M35.21,1.21l-2.46,4.08-5.04,8.34c3.86.81,5.98,4.22,5.98,10.13,0,6.81-2.82,10.32-7.88,10.32h-10.42v-.07l-6.64,10.98L0,59.45v.02h20.08v-11.96h6.69c14.31,0,22.39-8.76,22.39-22.58v-2.34c0-10.82-4.95-18.53-13.95-21.38"/>
  <polygon class="st0" points="0 48.64 0 0 29.4 0 0 48.64"/>
</svg>